<svg xmlns="http://www.w3.org/2000/svg" viewBox="0 0 51.29 29.48"><path d="M7.67,29.19l.6.17.9.6,1.11.66,1.11.55,1,.43L13.6,32l1.72.55,1.5.27,1.41.26.88.12,1,0,1.43.08,1.22-.12,1.41-.15,1.3-.18L27,32.43l1.61-.52,1.5-.64,1.37-.65,1.41-.81,1.75-1.09,1.49-1,1.36-.93,1.61-1.07,1.79-1.15,1.23-.67,1.21-.6,1-.47,1-.32.95-.23,1-.08h.94l1.11.15.94.28L51,23l.57.42.55.43.43.43.53.66.33.49.32.65.11.64c0,.06.1.62.1.69s0,.82,0,.82L53.8,29l-.19.85-.28.85-.27.59-.39.68-.44.74-.46.63-.55.69-.57.63-.75.77-.6.54-.87.65-.77.54-1,.62-.84.56-.75.47-1.12.6-1.09.46-1.11.48-1.2.45-1.2.41-1.16.35L36.46,42l-1.3.24-1.75.26-1,.1L31,42.64l-1,0-1,0-1.17,0-1.4-.16-1.13-.16L23.78,42l-1-.24-1.12-.29-1.31-.36-.79-.31-.86-.35-1.27-.58-1.08-.54-1.47-.85-1-.64-1.39-1.18-1.07-.91-.63-.63-.68-.77-.64-.87L9,32.79l-.62-1-.54-.93-.22-.72v-.7Z" transform="translate(-6.32 -14.48)" style="fill:#e8473e;stroke:#e8473e;stroke-linejoin:round;stroke-width:2.5789951673363523px"/><path d="M50.41,24.73l.25.75.36.8.36.7.42.52.51.37" transform="translate(-6.32 -14.48)" style="fill:#53ae32;stroke:#53ae32;stroke-linecap:round;stroke-linejoin:round;stroke-width:1.1722705306074317px"/><path d="M51.19,26.08l.54-.55s.49-.45.69-.66a11,11,0,0,0,.87-.93c.18-.24.6-.87.68-1s.54-.73.57-.8.38-.53.45-.67l.52-1.06.2-.59.18-.83,0-.62s0-.71,0-.76-.17-.63-.17-.63l-.23-.55-.31-.66-.11-.34a1.52,1.52,0,0,1,.12-.51c.08-.09.37-.26.42-.35s.47-.09.47-.09l.42.12.23.28.28.52.26.55.24.74.07.62,0,.72,0,.71-.15.65-.25.81-.28.65-.3.64-.28.6-.35.49-.45.55-.39.56-.56.6-.54.56-2.38,1.93h-.33Z" transform="translate(-6.32 -14.48)" style="fill:#53ae32"/></svg>